<svg width="80" height="80" viewBox="0 0 80 80" fill="none" xmlns="http://www.w3.org/2000/svg">
    <rect width="80" height="80" rx="10" fill="#884F46" />
    <g clip-path="url(#clip0_0_1)">
        <path
            d="M18.6655 18.6655L27.7165 27.7165C30.8601 24.5729 35.2029 22.6285 39.9999 22.6285V9.82851C31.6685 9.82863 24.1256 13.2056 18.6655 18.6655Z"
            fill="#3F140E" />
        <path
            d="M61.3345 18.6655L52.2836 27.7164C55.4271 30.8603 57.3715 35.2031 57.3715 40H70.1715C70.1714 31.6685 66.7944 24.1256 61.3345 18.6655Z"
            fill="#3F140E" />
        <path
            d="M9.82863 40C9.82863 48.3315 13.2056 55.8744 18.6655 61.3345L27.7165 52.2834C24.5729 49.1398 22.6285 44.7969 22.6285 40H9.82863Z"
            fill="#3F140E" />
        <path
            d="M52.2834 52.2834C49.1397 55.427 44.797 57.3714 40 57.3714V70.1714C48.3315 70.1714 55.8744 66.7944 61.3345 61.3345L52.2834 52.2834Z"
            fill="#3F140E" />
        <path
            d="M62.6275 17.3725C62.5841 17.3291 62.5386 17.2883 62.4916 17.2498C62.4611 17.2248 62.4289 17.2026 62.3971 17.1798C62.3803 17.1676 62.3644 17.1545 62.3473 17.143C62.3063 17.1157 62.2643 17.0916 62.2216 17.0679C62.2123 17.0627 62.2034 17.0565 62.194 17.0516C62.1498 17.028 62.1044 17.0074 62.0586 16.9876C62.0496 16.9838 62.0412 16.979 62.0322 16.9754C61.9889 16.9575 61.9446 16.9425 61.9002 16.928C61.8879 16.924 61.8759 16.9189 61.8633 16.915C61.8226 16.9027 61.7815 16.8934 61.7404 16.8841C61.7231 16.8802 61.7065 16.875 61.6891 16.8717C61.6515 16.8642 61.6134 16.8599 61.5754 16.8547C61.5541 16.852 61.5331 16.8476 61.5117 16.8456C61.4695 16.8416 61.4271 16.8405 61.3849 16.8394C61.3679 16.839 61.3513 16.8369 61.3343 16.8369C61.3173 16.8369 61.3006 16.8389 61.2836 16.8394C61.2413 16.8405 61.199 16.8416 61.1567 16.8456C61.1354 16.8476 61.1145 16.852 61.0933 16.8547C61.0553 16.8599 61.0171 16.8642 60.9795 16.8717C60.9624 16.8752 60.9456 16.8804 60.9286 16.8841C60.8872 16.8935 60.8461 16.903 60.8054 16.915C60.793 16.9189 60.7809 16.9238 60.7684 16.928C60.724 16.9425 60.6798 16.9575 60.6364 16.9754C60.6274 16.979 60.619 16.9838 60.61 16.9876C60.5643 17.0074 60.519 17.028 60.4748 17.0516C60.4653 17.0565 60.4565 17.0627 60.4471 17.0679C60.4045 17.0915 60.3623 17.1157 60.3214 17.143C60.3045 17.1541 60.289 17.1671 60.2725 17.1789C60.2404 17.2019 60.208 17.2243 60.1769 17.2496C60.1298 17.288 60.0844 17.329 60.041 17.3724L52.2223 25.1911C49.2569 22.735 45.6622 21.246 41.8285 20.8861V9.82862C41.8286 8.81887 41.0098 8 40 8C31.4528 8 23.4169 11.3285 17.3725 17.3725C11.3285 23.4169 8 31.4528 8 40C8 48.5472 11.3285 56.5831 17.3725 62.6275C23.4169 68.6715 31.4528 72 40 72C48.5472 72 56.5831 68.6715 62.6275 62.6275C68.6715 56.5831 72 48.5472 72 40C72 31.4528 68.6715 23.4169 62.6275 17.3725ZM18.7063 21.2922L25.1915 27.7775C22.735 30.7429 21.246 34.3375 20.8861 38.1715H11.7148C12.1118 31.895 14.5489 26.0112 18.7063 21.2922ZM27.7911 30.3774L35.5853 38.1715H24.5627C24.8955 35.3142 26.0062 32.6329 27.7911 30.3774ZM11.7148 41.8286H20.8853C21.2451 45.6627 22.7341 49.2578 25.1908 52.2231L18.7063 58.7077C14.5489 53.9887 12.1118 48.105 11.7148 41.8286ZM38.1714 68.2853C31.895 67.8883 26.0112 65.4511 21.2922 61.2939L27.7775 54.8086C30.7429 57.2651 34.3375 58.754 38.1715 59.1139L38.1714 68.2853ZM38.1714 55.4371C35.3144 55.1045 32.6345 53.992 30.3789 52.207L33.9786 48.6073C34.6926 47.8933 34.6926 46.7354 33.9786 46.0211C33.2644 45.3073 32.1069 45.3073 31.3925 46.0211L27.7943 49.6194C26.0099 47.3644 24.9 44.685 24.5672 41.8286H38.1715L38.1714 55.4371ZM38.1714 35.5853L30.3806 27.7944C32.6356 26.0099 35.315 24.8999 38.1714 24.5674V35.5853ZM38.1714 20.8854C34.3373 21.2453 30.7422 22.7342 27.7769 25.1909L21.2922 18.7063C26.0112 14.5488 31.895 12.1118 38.1714 11.7148V20.8854ZM68.2853 38.1714H59.1147C58.7549 34.3374 57.2659 30.7424 54.8094 27.7769L61.2939 21.2924C65.4511 26.0112 67.8883 31.895 68.2853 38.1714ZM41.8286 24.5629C44.6856 24.8955 47.3655 26.008 49.6211 27.7929L47.8498 29.5643C47.1358 30.2783 47.1358 31.4361 47.8498 32.1504C48.207 32.5071 48.6748 32.6857 49.1429 32.6857C49.611 32.6857 50.0787 32.5071 50.4359 32.1501L52.2069 30.3791C53.9902 32.6345 55.0999 35.3148 55.4326 38.1714H41.8286V24.5629ZM55.4371 41.8286C55.1045 44.6857 53.9936 47.3671 52.2088 49.6227L44.4146 41.8286H55.4371ZM41.8286 44.4147L49.6195 52.2055C47.3645 53.99 44.6851 55.1 41.8286 55.4325V44.4147ZM41.8286 68.2853V59.1147C45.6627 58.7549 49.2578 57.2659 52.2231 54.8092L58.7077 61.2939C53.9887 65.4511 48.105 67.8883 41.8286 68.2853ZM61.2938 58.7077L54.8085 52.2225C57.265 49.2571 58.7539 45.6625 59.1138 41.8285H68.2851C67.8883 48.105 65.4511 53.9887 61.2938 58.7077Z"
            fill="#FFE7E3" />
    </g>
</svg>
